<?xml version="1.0" encoding="UTF-8" standalone="no"?>
<!DOCTYPE svg PUBLIC "-//W3C//DTD SVG 1.1//EN" "http://www.w3.org/Graphics/SVG/1.1/DTD/svg11.dtd">
<svg width="100%" height="100%" viewBox="0 0 3508 2481" version="1.1" xmlns="http://www.w3.org/2000/svg" xmlns:xlink="http://www.w3.org/1999/xlink" xml:space="preserve" xmlns:serif="http://www.serif.com/" style="fill-rule:evenodd;clip-rule:evenodd;stroke-linecap:round;stroke-linejoin:round;stroke-miterlimit:1.5;">
    <g transform="matrix(2.03707,0,0,2.03707,-373.464,-1252.57)">
        <g transform="matrix(0.0554955,1.02039,-1.18527,0.0644631,2001.35,105.901)">
            <path d="M683.788,890.656L683.788,888.104C683.788,883.734 687.909,880.187 692.985,880.187L692.985,911.858C688.276,911.858 684.389,908.805 683.852,904.874C679.66,903.169 665.499,898.775 654.94,911.858C636.273,934.988 676.166,1012.97 676.166,1012.97L666.021,1017.71C666.021,1017.71 660.066,1006.35 639.135,946.288C627.389,892.358 675.261,890.555 683.788,890.656Z" style="fill:rgb(248,110,108);"/>
        </g>
        <g transform="matrix(-0.0554955,-1.02039,-1.18527,0.0644631,2090.84,1671.03)">
            <path d="M683.788,890.656L683.788,888.104C683.788,883.734 687.909,880.187 692.985,880.187L692.985,911.858C688.276,911.858 684.389,908.805 683.852,904.874C679.66,903.169 665.499,898.775 654.94,911.858C636.273,934.988 676.166,1012.97 676.166,1012.97L666.021,1017.71C666.021,1017.71 660.066,1006.35 639.135,946.288C627.389,892.358 675.261,890.555 683.788,890.656Z" style="fill:rgb(248,110,108);"/>
        </g>
        <g transform="matrix(1,0,0,1,-26.8935,-20.1779)">
            <ellipse cx="1005.12" cy="916.82" rx="39.948" ry="36.619" style="fill:rgb(248,110,108);stroke:white;stroke-width:6.53px;"/>
        </g>
        <g transform="matrix(0.0787827,0.996892,-0.996892,0.0787827,1817.79,107.264)">
            <path d="M743.45,1143.98C700.898,1134.75 672.022,1100.63 656.81,1039.48L683.343,1028.48C693.685,1061.97 707.51,1090.03 729.229,1105.48C745.769,1117.25 749.099,1117.13 765.865,1118.2C767.217,1118.29 768.589,1118.34 769.982,1118.36C817.023,1119.08 847.406,1074.07 853.178,1019.81L880.987,1035.11C866.023,1097.32 841.569,1134.21 795.3,1143.95C806.775,1148.94 820.859,1152.12 837.211,1153.53C859.567,1155.46 1154.1,1178.06 1154.1,1178.06L1149.84,1210.64C1149.84,1210.64 843.741,1188.02 828.76,1187C787.027,1183.37 759.081,1167.32 743.45,1143.98Z" style="fill:rgb(5,168,247);"/>
        </g>
        <g transform="matrix(1,0,0,1,27.4681,422.339)">
            <path d="M706.33,1035.11C706.702,1086.72 726.3,1117.35 766.859,1116.48C809.81,1115.56 831.517,1081.91 836.314,1031.71C847.442,1024.75 867.167,1026.91 876.06,1035.11C867.506,1101.48 822.841,1151.18 766.859,1149.16C713.282,1147.22 672.868,1112.94 672.301,1040.9C672.46,1025.89 674.025,718.962 674.025,718.962L706.843,717.279C706.843,717.279 706.169,1012.68 706.33,1035.11Z" style="fill:rgb(5,168,247);"/>
        </g>
        <g transform="matrix(1.22931,0,0,1.10617,-246.031,-157.762)">
            <ellipse cx="970.201" cy="1444.66" rx="70.048" ry="76.564" style="fill:rgb(5,168,247);"/>
        </g>
        <g transform="matrix(0.954139,0,0,0.863746,20.9365,192.459)">
            <ellipse cx="970.201" cy="1444.66" rx="70.048" ry="76.564" style="fill:rgb(248,110,108);"/>
        </g>
        <g transform="matrix(0.709546,0,0,0.630646,258.241,529.21)">
            <ellipse cx="970.201" cy="1444.66" rx="70.048" ry="76.564" style="fill:white;"/>
        </g>
        <g transform="matrix(1.12189,0,0,1,-124.512,38.5808)">
            <path d="M919.772,1245.73L889.938,1245.73C877.008,1245.73 866.511,1233.96 866.511,1219.45L866.511,1166.89C866.511,1152.38 877.008,1140.61 889.938,1140.61L919.772,1140.61L919.772,1107.13C919.772,1092.63 930.269,1080.85 943.198,1080.85L990.052,1080.85C1002.98,1080.85 1013.48,1092.63 1013.48,1107.13L1013.48,1140.61L1043.31,1140.61C1056.24,1140.61 1066.74,1152.38 1066.74,1166.89L1066.74,1219.45C1066.74,1233.96 1056.24,1245.73 1043.31,1245.73L1013.48,1245.73L1013.48,1279.2C1013.48,1293.71 1002.98,1305.49 990.052,1305.49L943.198,1305.49C930.269,1305.49 919.772,1293.71 919.772,1279.2L919.772,1245.73Z" style="fill:rgb(248,110,108);"/>
        </g>
        <g transform="matrix(1.21488,0,0,1.21488,-193.346,-324.957)">
            <path d="M881.771,1042.81C882.284,980.526 929.534,961.886 958.441,958.353C987.349,954.82 1018.18,953.053 1050.94,953.053C1139.6,953.053 1206.4,971.682 1251.37,1008.94C1296.34,1046.2 1318.82,1096.63 1318.82,1160.22C1318.82,1200.05 1308.54,1234.1 1287.99,1262.36C1267.43,1290.63 1243.02,1312.47 1214.75,1327.89C1237.88,1359.36 1260.68,1388.91 1283.17,1416.54C1305.65,1444.16 1335.18,1477.88 1332.84,1499.08C1329.83,1526.33 1318.02,1531.36 1301,1543.25C1283.97,1555.13 1264.86,1561.07 1243.66,1561.07C1229.53,1561.07 1217.32,1559.47 1207.05,1556.26C1196.77,1553.05 1187.77,1548.55 1180.07,1542.77C1172.36,1536.99 1109.33,1453.93 1054.42,1387.58C1053.34,1329.63 1053.72,1267.12 1054.29,1235.51C1054.74,1210.5 1110.11,1224.91 1125.77,1212.69C1140.31,1201.34 1148.27,1195.95 1148.27,1162.15C1148.27,1156.08 1141.77,1139.44 1126.04,1126.91C1110.3,1114.39 1071.94,1098.99 1028.23,1109.09C983.841,1119.35 881.13,1120.6 881.771,1042.81Z" style="fill:rgb(2,86,123);"/>
        </g>
        <g transform="matrix(1.3761,0,-5.89806e-17,1.27087,-200.655,-287.549)">
            <path d="M1018.66,1087.26L1047.32,1087.26L1062.84,1043.85L1073.61,1112.34L1086.19,1062.67L1097.05,1101.31L1108.89,1075.2L1169.54,1075.01" style="fill:none;stroke:white;stroke-width:8.61px;"/>
        </g>
        <g transform="matrix(0.945738,0,0,0.858612,13.1114,184.118)">
            <path d="M1563.74,930.861L1563.74,1451.53C1563.74,1595.22 1457.83,1711.87 1327.38,1711.87L853.414,1711.87C722.967,1711.87 617.061,1595.22 617.061,1451.53L617.061,930.861C617.061,787.178 722.967,670.525 853.414,670.525L1327.38,670.525C1457.83,670.525 1563.74,787.178 1563.74,930.861Z" style="fill:none;stroke:rgb(255,103,103);stroke-width:7.83px;"/>
        </g>
    </g>
</svg>
